<svg width="36" height="36" viewBox="0 0 36 36" fill="none" xmlns="http://www.w3.org/2000/svg">
<path d="M34.56 0H1.44C0.6435 0 0 0.6435 0 1.44V34.56C0 35.3565 0.6435 36 1.44 36H34.56C35.3565 36 36 35.3565 36 34.56V1.44C36 0.6435 35.3565 0 34.56 0ZM33.12 33.12H24.8355V22.059H29.5155L30.2175 16.6275H24.8355V13.158C24.8355 11.583 25.272 10.512 27.5265 10.512H30.402V5.652C29.9025 5.5845 28.197 5.436 26.208 5.436C22.059 5.436 19.2195 7.9695 19.2195 12.618V16.623H14.5305V22.0545H19.224V33.12H2.88V2.88H33.12V33.12Z" fill="white"/>
</svg>
