<svg width="36" height="36" viewBox="0 0 36 36" fill="none" xmlns="http://www.w3.org/2000/svg">
<path d="M0 0V36H36V0H0ZM3.27273 3.27273H32.7273V32.7273H3.27273V3.27273ZM6.54545 10.4236V24.5127H13.3855C15.9382 24.4964 18.3436 23.2691 18.3436 20.4055C18.3436 18.6218 17.4927 17.1164 15.7745 16.6255C17.0345 16.0036 17.6891 15.3164 17.6891 13.9091C17.6891 11.0945 15.6109 10.4236 13.1891 10.4236H6.54545ZM21.5018 11.4545V12.8455H27.1964V11.4545H21.5018ZM9.65454 12.5836H12.5673C13.6636 12.5836 14.6782 12.8945 14.6782 14.1873C14.6782 15.3818 13.8927 15.8727 12.78 15.8727H9.65454V12.5836ZM24.48 13.7945C21.3873 13.7945 19.2764 16.1018 19.2764 19.1782C19.2764 22.3527 21.2564 24.5455 24.48 24.5455C26.9182 24.5455 28.5055 23.4491 29.2582 21.1091H26.7873C26.5091 21.9764 25.4291 22.4345 24.5782 22.4345C22.9255 22.4345 22.0745 21.4691 22.0745 19.8491H29.4218C29.4382 19.6855 29.4545 19.4891 29.4545 19.3091C29.4545 16.2982 27.6709 13.7945 24.48 13.7945ZM24.3818 15.8891C25.8055 15.8891 26.5091 16.7236 26.6236 18.0818H22.0745C22.1564 16.74 23.04 15.8891 24.3818 15.8891ZM9.63818 18.2127H13.0255C14.3836 18.2127 15.2509 18.7855 15.2509 20.2418C15.2509 21.6491 14.22 22.0909 12.96 22.0909H9.63818V18.2127Z" fill="white"/>
</svg>
