<svg width="36" height="36" viewBox="0 0 36 36" fill="none" xmlns="http://www.w3.org/2000/svg">
<path d="M17.9952 8.76426C12.8843 8.76426 8.75959 12.889 8.75959 18C8.75959 23.111 12.8843 27.2357 17.9952 27.2357C23.106 27.2357 27.2307 23.111 27.2307 18C27.2307 12.889 23.106 8.76426 17.9952 8.76426ZM17.9952 24.0026C14.69 24.0026 11.9927 21.3052 11.9927 18C11.9927 14.6948 14.69 11.9974 17.9952 11.9974C21.3003 11.9974 23.9976 14.6948 23.9976 18C23.9976 21.3052 21.3003 24.0026 17.9952 24.0026ZM27.609 6.23355C26.4157 6.23355 25.4521 7.1972 25.4521 8.39051C25.4521 9.58381 26.4157 10.5475 27.609 10.5475C28.8023 10.5475 29.7659 9.58832 29.7659 8.39051C29.7663 8.10715 29.7107 7.82651 29.6024 7.56466C29.4942 7.3028 29.3353 7.06488 29.1349 6.86452C28.9346 6.66415 28.6967 6.50529 28.4348 6.39701C28.173 6.28874 27.8923 6.23319 27.609 6.23355ZM35.998 18C35.998 15.5143 36.0205 13.0512 35.8809 10.57C35.7413 7.68803 35.0839 5.1303 32.9765 3.02288C30.8646 0.910954 28.3114 0.258013 25.4295 0.118418C22.9439 -0.0211759 20.4808 0.0013394 17.9997 0.0013394C15.514 0.0013394 13.0509 -0.0211759 10.5698 0.118418C7.68789 0.258013 5.13021 0.915457 3.02282 3.02288C0.910937 5.13481 0.258008 7.68803 0.118416 10.57C-0.0211755 13.0557 0.00133938 15.5188 0.00133938 18C0.00133938 20.4812 -0.0211755 22.9488 0.118416 25.43C0.258008 28.312 0.91544 30.8697 3.02282 32.9771C5.13471 35.089 7.68789 35.742 10.5698 35.8816C13.0554 36.0212 15.5185 35.9987 17.9997 35.9987C20.4853 35.9987 22.9484 36.0212 25.4295 35.8816C28.3114 35.742 30.8691 35.0845 32.9765 32.9771C35.0884 30.8652 35.7413 28.312 35.8809 25.43C36.025 22.9488 35.998 20.4857 35.998 18ZM32.0354 28.6182C31.7067 29.4377 31.3104 30.0501 30.6755 30.6806C30.0406 31.3155 29.4327 31.7118 28.6131 32.0405C26.2446 32.9816 20.6204 32.77 17.9952 32.77C15.3699 32.77 9.74124 32.9816 7.37268 32.045C6.55314 31.7163 5.94074 31.32 5.31033 30.6851C4.67541 30.0501 4.27915 29.4422 3.95043 28.6227C3.01382 26.2496 3.22546 20.6253 3.22546 18C3.22546 15.3747 3.01382 9.74592 3.95043 7.37732C4.27915 6.55777 4.67541 5.94536 5.31033 5.31493C5.94525 4.6845 6.55314 4.28373 7.37268 3.95501C9.74124 3.01838 15.3699 3.23002 17.9952 3.23002C20.6204 3.23002 26.2491 3.01838 28.6176 3.95501C29.4372 4.28373 30.0496 4.68 30.68 5.31493C31.3149 5.94986 31.7112 6.55777 32.0399 7.37732C32.9765 9.74592 32.7649 15.3747 32.7649 18C32.7649 20.6253 32.9765 26.2496 32.0354 28.6182Z" fill="white"/>
</svg>
